<svg width="1440" height="785" viewBox="0 0 1440 785" fill="none" xmlns="http://www.w3.org/2000/svg">
<g opacity="0.01">
<path d="M2589 1771.28H-1155V1776.12H2589V1771.28Z" fill="white"/>
<path d="M2589 1654.13H-1155V1658.97H2589V1654.13Z" fill="white"/>
<path d="M2589 1536.98H-1155V1541.82H2589V1536.98Z" fill="white"/>
<path d="M2589 1419.83H-1155V1424.67H2589V1419.83Z" fill="white"/>
<path d="M2589 1302.68H-1155V1307.52H2589V1302.68Z" fill="white"/>
<path d="M2589 1185.53H-1155V1190.37H2589V1185.53Z" fill="white"/>
<path d="M2589 1068.38H-1155V1073.22H2589V1068.38Z" fill="white"/>
<path d="M2589 951.226H-1155V956.074H2589V951.226Z" fill="white"/>
<path d="M2589 834.075H-1155V838.924H2589V834.075Z" fill="white"/>
<path d="M2589 716.926H-1155V721.774H2589V716.926Z" fill="white"/>
<path d="M2589 599.776H-1155V604.624H2589V599.776Z" fill="white"/>
<path d="M2589 482.626H-1155V487.474H2589V482.626Z" fill="white"/>
<path d="M2589 365.475H-1155V370.324H2589V365.475Z" fill="white"/>
<path d="M2589 248.326H-1155V253.174H2589V248.326Z" fill="white"/>
<path d="M2589 131.176H-1155V136.024H2589V131.176Z" fill="white"/>
<path d="M2589 14.0255H-1155V18.8744H2589V14.0255Z" fill="white"/>
<path d="M2251.06 -335H2246.22V2008H2251.06V-335Z" fill="white"/>
<path d="M2137.61 -335H2132.76V2008H2137.61V-335Z" fill="white"/>
<path d="M2024.16 -335H2019.31V2008H2024.16V-335Z" fill="white"/>
<path d="M1910.7 -335H1905.85V2008H1910.7V-335Z" fill="white"/>
<path d="M1797.25 -335H1792.4V2008H1797.25V-335Z" fill="white"/>
<path d="M1683.79 -335H1678.94V2008H1683.79V-335Z" fill="white"/>
<path d="M1570.33 -335H1565.48V2008H1570.33V-335Z" fill="white"/>
<path d="M1456.88 -335H1452.03V2008H1456.88V-335Z" fill="white"/>
<path d="M1343.42 -335H1338.58V2008H1343.42V-335Z" fill="white"/>
<path d="M1229.97 -335H1225.12V2008H1229.97V-335Z" fill="white"/>
<path d="M1116.52 -335H1111.67V2008H1116.52V-335Z" fill="white"/>
<path d="M1003.06 -335H998.215V2008H1003.06V-335Z" fill="white"/>
<path d="M889.611 -335H884.762V2008H889.611V-335Z" fill="white"/>
<path d="M776.157 -335H771.308V2008H776.157V-335Z" fill="white"/>
<path d="M662.704 -335H657.855V2008H662.704V-335Z" fill="white"/>
<path d="M549.25 -335H544.401V2008H549.25V-335Z" fill="white"/>
<path d="M435.797 -335H430.948V2008H435.797V-335Z" fill="white"/>
<path d="M322.332 -335H317.483V2008H322.332V-335Z" fill="white"/>
<path d="M208.878 -335H204.029V2008H208.878V-335Z" fill="white"/>
<path d="M95.4246 -335H90.5756V2008H95.4246V-335Z" fill="white"/>
<path d="M-18.0289 -335H-22.8779V2008H-18.0289V-335Z" fill="white"/>
<path d="M-131.482 -335H-136.331V2008H-131.482V-335Z" fill="white"/>
<path d="M-244.936 -335H-249.785V2008H-244.936V-335Z" fill="white"/>
<path d="M-358.389 -335H-363.238V2008H-358.389V-335Z" fill="white"/>
<path d="M-471.843 -335H-476.692V2008H-471.843V-335Z" fill="white"/>
<path d="M-585.296 -335H-590.145V2008H-585.296V-335Z" fill="white"/>
<path d="M-698.75 -335H-703.599V2008H-698.75V-335Z" fill="white"/>
<path d="M-812.215 -335H-817.064V2008H-812.215V-335Z" fill="white"/>
</g>
</svg>
