<svg width="38" height="38" viewBox="0 0 38 38" fill="currentColor" xmlns="http://www.w3.org/2000/svg">
<g clip-path="url(#clip0_55_13)">
<path fill-rule="evenodd" clip-rule="evenodd" d="M18.9999 8.38025C19.6182 8.38025 20.1195 8.8815 20.1195 9.49983L20.1195 17.8802L28.4998 17.8802C29.1182 17.8802 29.6194 18.3814 29.6194 18.9998C29.6194 19.6181 29.1182 20.1193 28.4998 20.1193L20.1195 20.1193L20.1195 28.4997C20.1195 29.118 19.6182 29.6193 18.9999 29.6193C18.3816 29.6193 17.8803 29.118 17.8803 28.4997L17.8803 20.1193L9.49994 20.1193C8.88161 20.1193 8.38036 19.6181 8.38036 18.9998C8.38036 18.3814 8.88162 17.8802 9.49994 17.8802L17.8803 17.8802L17.8803 9.49983C17.8803 8.8815 18.3816 8.38025 18.9999 8.38025Z" fill="currentColor"/>
</g>
<defs>
<clipPath id="clip0_55_13">
<rect width="26.8699" height="26.8699" fill="white" transform="translate(18.9999) rotate(45)"/>
</clipPath>
</defs>
</svg>
