<svg width="67" height="67" viewBox="0 0 67 67" fill="none" xmlns="http://www.w3.org/2000/svg">
<g filter="url(#filter0_d_36_37)">
<circle cx="33.5" cy="28.5" r="27" fill="white"/>
</g>
<path d="M45 28.9125C44.8377 28.5122 44.5593 28.1697 44.2006 27.9291C43.8419 27.6885 43.4194 27.5608 42.9875 27.5625H40.6875V18.5C40.6842 17.9209 40.4527 17.3664 40.0432 16.9568C39.6336 16.5473 39.0791 16.3158 38.5 16.3125H28.5C27.9208 16.3158 27.3663 16.5473 26.9568 16.9568C26.5473 17.3664 26.3158 17.9209 26.3125 18.5V27.5625H24.0125C23.5816 27.571 23.1629 27.7065 22.8088 27.9521C22.4547 28.1977 22.181 28.5424 22.0221 28.943C21.8632 29.3436 21.8262 29.7822 21.9156 30.2037C22.0051 30.6253 22.2171 31.011 22.525 31.3125L31.95 39.5C32.1546 39.7061 32.3981 39.8697 32.6662 39.9812C32.9344 40.0928 33.222 40.1502 33.5125 40.15C33.7877 40.153 34.0609 40.1015 34.3162 39.9986C34.5714 39.8956 34.8038 39.7431 35 39.55L44.525 31.275C44.8282 30.9719 45.0351 30.5859 45.1196 30.1655C45.2041 29.7452 45.1625 29.3093 45 28.9125ZM31.625 23.8125C31.934 23.8125 32.2361 23.9041 32.4931 24.0758C32.75 24.2475 32.9503 24.4915 33.0685 24.7771C33.1868 25.0626 33.2177 25.3767 33.1575 25.6798C33.0972 25.9829 32.9484 26.2613 32.7298 26.4799C32.5113 26.6984 32.2329 26.8472 31.9298 26.9075C31.6267 26.9678 31.3125 26.9368 31.027 26.8186C30.7415 26.7003 30.4975 26.5 30.3258 26.2431C30.1541 25.9861 30.0625 25.684 30.0625 25.375C30.0625 24.9606 30.2271 24.5632 30.5201 24.2701C30.8132 23.9771 31.2106 23.8125 31.625 23.8125ZM35.375 33.1875C35.0659 33.1875 34.7639 33.0959 34.5069 32.9242C34.25 32.7525 34.0497 32.5085 33.9314 32.2229C33.8132 31.9374 33.7822 31.6233 33.8425 31.3202C33.9028 31.0171 34.0516 30.7387 34.2701 30.5201C34.4886 30.3016 34.7671 30.1528 35.0702 30.0925C35.3732 30.0322 35.6874 30.0632 35.9729 30.1814C36.2584 30.2997 36.5025 30.5 36.6742 30.7569C36.8458 31.0139 36.9375 31.316 36.9375 31.625C36.9375 32.0394 36.7729 32.4368 36.4798 32.7299C36.1868 33.0229 35.7894 33.1875 35.375 33.1875ZM36.625 26.6625L31.625 31.6625C31.4492 31.8381 31.2109 31.9367 30.9625 31.9367C30.714 31.9367 30.4758 31.8381 30.3 31.6625C30.1244 31.4867 30.0258 31.2484 30.0258 31C30.0258 30.7516 30.1244 30.5133 30.3 30.3375L35.3 25.3375C35.4777 25.1719 35.7128 25.0817 35.9556 25.086C36.1985 25.0903 36.4302 25.1887 36.602 25.3605C36.7738 25.5322 36.8722 25.764 36.8765 26.0068C36.8807 26.2497 36.7906 26.4848 36.625 26.6625Z" fill="#4354F0"/>
<defs>
<filter id="filter0_d_36_37" x="0" y="0" width="67" height="67" filterUnits="userSpaceOnUse" color-interpolation-filters="sRGB">
<feFlood flood-opacity="0" result="BackgroundImageFix"/>
<feColorMatrix in="SourceAlpha" type="matrix" values="0 0 0 0 0 0 0 0 0 0 0 0 0 0 0 0 0 0 127 0" result="hardAlpha"/>
<feOffset dy="5"/>
<feGaussianBlur stdDeviation="3.25"/>
<feComposite in2="hardAlpha" operator="out"/>
<feColorMatrix type="matrix" values="0 0 0 0 0 0 0 0 0 0 0 0 0 0 0 0 0 0 0.25 0"/>
<feBlend mode="normal" in2="BackgroundImageFix" result="effect1_dropShadow_36_37"/>
<feBlend mode="normal" in="SourceGraphic" in2="effect1_dropShadow_36_37" result="shape"/>
</filter>
</defs>
</svg>
