<svg width="67" height="67" viewBox="0 0 67 67" fill="none" xmlns="http://www.w3.org/2000/svg">
<g filter="url(#filter0_d_36_47)">
<circle cx="33.5" cy="28.5" r="27" fill="white"/>
</g>
<g clip-path="url(#clip0_36_47)">
<path d="M33.5 21.9375C32.2021 21.9375 30.9333 22.3224 29.8541 23.0435C28.7749 23.7646 27.9337 24.7895 27.437 25.9886C26.9403 27.1878 26.8104 28.5073 27.0636 29.7803C27.3168 31.0533 27.9418 32.2226 28.8596 33.1404C29.7774 34.0582 30.9467 34.6832 32.2197 34.9364C33.4927 35.1896 34.8122 35.0597 36.0114 34.563C37.2105 34.0663 38.2354 33.2251 38.9565 32.1459C39.6776 31.0667 40.0625 29.7979 40.0625 28.5C40.0606 26.7601 39.3685 25.092 38.1383 23.8617C36.908 22.6315 35.2399 21.9394 33.5 21.9375ZM36.9753 27.2878L33.2253 31.0378C33.1383 31.1249 33.035 31.194 32.9212 31.2411C32.8075 31.2882 32.6856 31.3125 32.5625 31.3125C32.4394 31.3125 32.3175 31.2882 32.2038 31.2411C32.09 31.194 31.9867 31.1249 31.8997 31.0378L30.0247 29.1628C29.8539 28.986 29.7594 28.7492 29.7616 28.5034C29.7637 28.2576 29.8623 28.0224 30.0361 27.8486C30.2099 27.6748 30.4451 27.5762 30.6909 27.5741C30.9367 27.5719 31.1735 27.6664 31.3503 27.8372L32.5625 29.0493L35.6497 25.9622C35.8265 25.7914 36.0633 25.6969 36.3091 25.6991C36.5549 25.7012 36.7901 25.7998 36.9639 25.9736C37.1377 26.1474 37.2363 26.3826 37.2384 26.6284C37.2406 26.8742 37.1461 27.111 36.9753 27.2878Z" fill="#4354F0"/>
<path d="M47.0791 25.5375L45.183 25.0633C44.9385 24.2321 44.6054 23.4296 44.1893 22.6697L45.1964 20.9916C45.4119 20.6331 45.5013 20.2128 45.4502 19.7976C45.399 19.3825 45.2105 18.9964 44.9144 18.7009L43.298 17.0852C43.0026 16.789 42.6165 16.6003 42.2013 16.5492C41.7861 16.4981 41.3657 16.5875 41.0073 16.8032L39.3301 17.8099C38.57 17.3941 37.7673 17.0613 36.9359 16.8174L36.4618 14.9199C36.3608 14.514 36.1268 14.1536 35.7971 13.8962C35.4674 13.6389 35.0609 13.4994 34.6426 13.5H32.357C31.9388 13.4996 31.5325 13.6392 31.2029 13.8965C30.8733 14.1538 30.6393 14.5141 30.5383 14.9199L30.0641 16.8174C29.2328 17.0615 28.4301 17.3942 27.67 17.8099L25.9918 16.8027C25.6334 16.5873 25.2131 16.4981 24.7981 16.5493C24.383 16.6005 23.997 16.7892 23.7016 17.0852L22.0847 18.702C21.7889 18.9976 21.6006 19.3836 21.5496 19.7987C21.4986 20.2137 21.588 20.6339 21.8035 20.9922L22.8102 22.6703C22.3945 23.4303 22.0618 24.2328 21.8177 25.064L19.9202 25.5382C19.5144 25.6391 19.154 25.8731 18.8966 26.2028C18.6392 26.5324 18.4996 26.9388 18.5 27.357V29.643C18.4994 30.0613 18.6389 30.4678 18.8963 30.7976C19.1536 31.1273 19.514 31.3614 19.9199 31.4625L21.8174 31.9367C22.0615 32.7679 22.3942 33.5704 22.8099 34.3304L21.8027 36.0085C21.5875 36.367 21.4984 36.7873 21.5495 37.2023C21.6007 37.6173 21.7893 38.0033 22.0852 38.2988L23.702 39.9156C23.9975 40.2115 24.3836 40.4 24.7986 40.451C25.2137 40.5019 25.6339 40.4125 25.9922 40.1968L27.6703 39.1901C28.4303 39.6058 29.2328 39.9385 30.064 40.1826L30.5382 42.0801C30.6392 42.4859 30.8732 42.8462 31.2028 43.1035C31.5325 43.3609 31.9388 43.5005 32.357 43.5H34.6426C35.0608 43.5006 35.4672 43.361 35.7969 43.1037C36.1265 42.8463 36.3605 42.4859 36.4614 42.0801L36.9356 40.1826C37.7669 39.9387 38.5696 39.6059 39.3298 39.1901L41.0079 40.1973C41.3663 40.4126 41.7865 40.5018 42.2014 40.4506C42.6164 40.3994 43.0023 40.2108 43.2976 39.9148L44.9154 38.298C45.2111 38.0024 45.3994 37.6163 45.4504 37.2013C45.5014 36.7863 45.412 36.3662 45.1966 36.0078L44.1895 34.3301C44.6055 33.5701 44.9387 32.7676 45.1832 31.9364L47.0793 31.4622C47.4853 31.3613 47.8458 31.1273 48.1033 30.7975C48.3608 30.4678 48.5005 30.0614 48.5 29.643V27.357C48.5005 26.9386 48.3608 26.532 48.1033 26.2022C47.8458 25.8725 47.4852 25.6384 47.0791 25.5375ZM33.5 36.9375C31.8312 36.9375 30.1999 36.4427 28.8124 35.5155C27.4248 34.5884 26.3434 33.2706 25.7048 31.7289C25.0662 30.1871 24.8991 28.4906 25.2246 26.8539C25.5502 25.2172 26.3538 23.7138 27.5338 22.5338C28.7138 21.3538 30.2172 20.5502 31.8539 20.2246C33.4906 19.8991 35.1871 20.0662 36.7289 20.7048C38.2706 21.3434 39.5884 22.4248 40.5155 23.8124C41.4427 25.1999 41.9375 26.8312 41.9375 28.5C41.935 30.737 41.0453 32.8817 39.4635 34.4635C37.8817 36.0453 35.737 36.935 33.5 36.9375Z" fill="#4354F0"/>
</g>
<defs>
<filter id="filter0_d_36_47" x="0" y="0" width="67" height="67" filterUnits="userSpaceOnUse" color-interpolation-filters="sRGB">
<feFlood flood-opacity="0" result="BackgroundImageFix"/>
<feColorMatrix in="SourceAlpha" type="matrix" values="0 0 0 0 0 0 0 0 0 0 0 0 0 0 0 0 0 0 127 0" result="hardAlpha"/>
<feOffset dy="5"/>
<feGaussianBlur stdDeviation="3.25"/>
<feComposite in2="hardAlpha" operator="out"/>
<feColorMatrix type="matrix" values="0 0 0 0 0 0 0 0 0 0 0 0 0 0 0 0 0 0 0.25 0"/>
<feBlend mode="normal" in2="BackgroundImageFix" result="effect1_dropShadow_36_47"/>
<feBlend mode="normal" in="SourceGraphic" in2="effect1_dropShadow_36_47" result="shape"/>
</filter>
<clipPath id="clip0_36_47">
<rect width="30" height="30" fill="white" transform="translate(18.5 13.5)"/>
</clipPath>
</defs>
</svg>
