<svg width="67" height="67" viewBox="0 0 67 67" fill="none" xmlns="http://www.w3.org/2000/svg">
<g filter="url(#filter0_d_36_30)">
<circle cx="33.5" cy="28.5" r="27" fill="white"/>
</g>
<g clip-path="url(#clip0_36_30)">
<path d="M47.6207 41.7422H46.6832V24.3987C46.6832 23.9133 46.2897 23.5198 45.8043 23.5198H42.2887C41.8034 23.5198 41.4098 23.9133 41.4098 24.3987V41.7422H39.6521V30.258C39.6521 29.7726 39.2585 29.3791 38.7732 29.3791H35.2576C34.7722 29.3791 34.3787 29.7726 34.3787 30.258V41.7422H32.6209V33.4806C32.6209 32.9952 32.2274 32.6017 31.742 32.6017H28.2264C27.741 32.6017 27.3475 32.9952 27.3475 33.4806V41.7422H25.5897V35.5899C25.5897 35.1045 25.1962 34.711 24.7109 34.711H21.1953C20.7099 34.711 20.3164 35.1045 20.3164 35.5899V41.7422H19.3789C18.8935 41.7422 18.5 42.1357 18.5 42.6211C18.5 43.1065 18.8935 43.5 19.3789 43.5H47.6207C48.1061 43.5 48.4996 43.1065 48.4996 42.6211C48.4996 42.1357 48.1061 41.7422 47.6207 41.7422Z" fill="#4354F0"/>
<path d="M19.3789 32.3853C24.8642 32.3853 30.8127 30.4153 36.1286 26.8381C40.2919 24.0365 43.7625 20.4575 45.9182 16.7927L46.7718 19.9782C46.877 20.3709 47.3851 20.7101 47.8482 20.5996C48.3204 20.487 48.5953 19.9921 48.4697 19.5232L47.0304 14.152C46.9047 13.6832 46.4231 13.4049 45.954 13.5305L40.5828 14.9698C40.1139 15.0954 39.8357 15.5773 39.9614 16.0462C40.087 16.515 40.5687 16.7934 41.0378 16.6676L44.498 15.7404C42.4868 19.2353 39.1629 22.6775 35.1473 25.3797C30.1183 28.7638 24.5184 30.6275 19.3789 30.6275C18.8935 30.6275 18.5 31.021 18.5 31.5064C18.5 31.9918 18.8935 32.3853 19.3789 32.3853Z" fill="#4354F0"/>
</g>
<defs>
<filter id="filter0_d_36_30" x="0" y="0" width="67" height="67" filterUnits="userSpaceOnUse" color-interpolation-filters="sRGB">
<feFlood flood-opacity="0" result="BackgroundImageFix"/>
<feColorMatrix in="SourceAlpha" type="matrix" values="0 0 0 0 0 0 0 0 0 0 0 0 0 0 0 0 0 0 127 0" result="hardAlpha"/>
<feOffset dy="5"/>
<feGaussianBlur stdDeviation="3.25"/>
<feComposite in2="hardAlpha" operator="out"/>
<feColorMatrix type="matrix" values="0 0 0 0 0 0 0 0 0 0 0 0 0 0 0 0 0 0 0.25 0"/>
<feBlend mode="normal" in2="BackgroundImageFix" result="effect1_dropShadow_36_30"/>
<feBlend mode="normal" in="SourceGraphic" in2="effect1_dropShadow_36_30" result="shape"/>
</filter>
<clipPath id="clip0_36_30">
<rect width="30" height="30" fill="white" transform="translate(18.5 13.5)"/>
</clipPath>
</defs>
</svg>
