<svg width="67" height="67" viewBox="0 0 67 67" fill="none" xmlns="http://www.w3.org/2000/svg">
<g filter="url(#filter0_d_36_32)">
<circle cx="33.5" cy="28.5" r="27" fill="white"/>
</g>
<g clip-path="url(#clip0_36_32)">
<path d="M33.8046 38.8137C39.3591 36.5728 41.6091 32.4864 42.4409 28.8591H33.8046V38.8137Z" fill="#4354F0"/>
<path d="M24.15 23.4637C24.0728 24.6137 24.0682 26.2137 24.3773 27.9773H32.9228V17.8727C31.6091 17.8909 30.3091 17.9864 29.0273 18.1727C28.4091 19.6137 27.0137 21.9818 24.15 23.4637Z" fill="#4354F0"/>
<path d="M32.9227 38.7V28.8591H24.5591C25.3818 32.4228 27.5682 36.4364 32.9227 38.7Z" fill="#4354F0"/>
<path d="M45.6409 21.3409C41.5955 20.1137 40.5364 16.6 40.3 15.5137C35.6227 14.6228 31.0455 14.6182 26.6955 15.5091C26.4637 16.5909 25.4046 20.1137 21.3546 21.3409C20.9773 23.4955 19.1137 37.4637 33.5 42.1455C47.8818 37.4637 46.0227 23.4955 45.6409 21.3409ZM43.4818 28.4182C43.4818 28.5182 43.4455 28.6046 43.3864 28.6773C42.5591 32.7137 40.1273 37.4091 33.65 39.8228C33.6 39.8409 33.55 39.85 33.4955 39.85C33.4727 39.85 33.4455 39.8409 33.4227 39.8364C33.4 39.8409 33.3818 39.85 33.3591 39.85C33.2273 39.85 33.1137 39.7909 33.0318 39.6955C23.3409 35.8955 22.9818 26.8773 23.2864 23.1455C23.3 22.9909 23.3909 22.8546 23.5318 22.7864C26.4455 21.3637 27.7727 18.9318 28.3046 17.6137C28.3637 17.4682 28.4909 17.3637 28.6455 17.3409C30.1864 17.1046 31.75 16.9909 33.3455 16.9864C33.35 16.9864 33.3546 16.9818 33.3591 16.9818C33.3637 16.9818 33.3682 16.9818 33.3727 16.9864C35.0091 16.9864 36.6682 17.1091 38.35 17.3591C38.5046 17.3818 38.6364 17.4864 38.6955 17.6318C39.2273 18.95 40.55 21.3682 43.4591 22.7864C43.6 22.8546 43.6909 22.9909 43.7046 23.1455C43.8091 24.4 43.8318 26.2546 43.4591 28.3046C43.4682 28.3409 43.4818 28.3773 43.4818 28.4182Z" fill="#4354F0"/>
<path d="M37.9773 18.1955C36.5637 17.9955 35.1727 17.8955 33.8 17.8727V27.9727H42.6182C42.9273 26.2091 42.9227 24.6091 42.8455 23.4591C39.9955 21.9864 38.6 19.6318 37.9773 18.1955Z" fill="#4354F0"/>
<path d="M23.6546 16.3864C23.6546 16.6273 23.4546 16.8273 23.2137 16.8273C22.4046 16.8273 21.7455 17.5182 21.7455 18.3727C21.7455 18.6137 21.5455 18.8137 21.3046 18.8137C21.0591 18.8137 20.8637 18.6137 20.8637 18.3727C20.8637 17.5182 20.2046 16.8273 19.3955 16.8273C19.15 16.8273 18.9546 16.6318 18.9546 16.3864C18.9546 16.1409 19.15 15.9455 19.3955 15.9455C20.2 15.9455 20.8637 15.25 20.8637 14.4C20.8637 14.1591 21.0591 13.9591 21.3046 13.9591C21.5455 13.9591 21.7455 14.1591 21.7455 14.4C21.7455 15.25 22.4 15.9455 23.2137 15.9455C23.4546 15.9455 23.6546 16.1455 23.6546 16.3864Z" fill="#4354F0"/>
<path d="M45.0364 40.9773C44.7818 40.5455 44.4273 40.1864 44.0091 39.9273C44.4273 39.6682 44.7818 39.3046 45.0364 38.8773C45.2909 39.3091 45.6455 39.6682 46.0636 39.9273C45.6455 40.1864 45.2909 40.55 45.0364 40.9773Z" fill="#4354F0"/>
<path d="M48.0455 39.9273C48.0455 40.1682 47.8455 40.3682 47.6046 40.3682C46.4318 40.3682 45.4773 41.3682 45.4773 42.6C45.4773 42.8454 45.2818 43.0409 45.0364 43.0409C44.7955 43.0409 44.5955 42.8454 44.5955 42.6C44.5955 41.3682 43.6455 40.3682 42.4727 40.3682C42.2318 40.3682 42.0318 40.1682 42.0318 39.9273C42.0318 39.6818 42.2318 39.4864 42.4727 39.4864C43.6455 39.4864 44.5955 38.4818 44.5955 37.25C44.5955 37.0091 44.7955 36.8091 45.0364 36.8091C45.2818 36.8091 45.4773 37.0091 45.4773 37.25C45.4773 38.4818 46.4318 39.4864 47.6046 39.4864C47.8455 39.4864 48.0455 39.6818 48.0455 39.9273Z" fill="#4354F0"/>
</g>
<defs>
<filter id="filter0_d_36_32" x="0" y="0" width="67" height="67" filterUnits="userSpaceOnUse" color-interpolation-filters="sRGB">
<feFlood flood-opacity="0" result="BackgroundImageFix"/>
<feColorMatrix in="SourceAlpha" type="matrix" values="0 0 0 0 0 0 0 0 0 0 0 0 0 0 0 0 0 0 127 0" result="hardAlpha"/>
<feOffset dy="5"/>
<feGaussianBlur stdDeviation="3.25"/>
<feComposite in2="hardAlpha" operator="out"/>
<feColorMatrix type="matrix" values="0 0 0 0 0 0 0 0 0 0 0 0 0 0 0 0 0 0 0.25 0"/>
<feBlend mode="normal" in2="BackgroundImageFix" result="effect1_dropShadow_36_32"/>
<feBlend mode="normal" in="SourceGraphic" in2="effect1_dropShadow_36_32" result="shape"/>
</filter>
<clipPath id="clip0_36_32">
<rect width="30" height="30" fill="white" transform="translate(18.5 13.5)"/>
</clipPath>
</defs>
</svg>
