<svg width="123" height="23" viewBox="0 0 123 23" fill="none" xmlns="http://www.w3.org/2000/svg">
<path d="M0.785962 0.0898039C0.559417 -0.0680947 0.247764 -0.0124457 0.089865 0.214099C-0.0680336 0.440644 -0.0123846 0.752298 0.21416 0.910196L0.500061 0.5L0.785962 0.0898039ZM123.001 0.500198L117.257 1.08403L120.634 5.76648L123.001 0.500198ZM0.500061 0.5L0.21416 0.910196C19.1184 14.0862 38.8401 21.8101 58.9166 22.7009C78.9986 23.5919 99.3932 17.6438 119.631 3.54706L119.345 3.13678L119.06 2.7265C98.9803 16.7127 78.7988 22.5821 58.9609 21.7019C39.1173 20.8214 19.5751 13.1855 0.785962 0.0898039L0.500061 0.5Z" fill="#4354F0"/>
</svg>
