<svg width="26" height="26" viewBox="0 0 26 26" fill="none" xmlns="http://www.w3.org/2000/svg">
<path d="M21.1599 6.42275C19.2002 3.95438 16.3052 2.50244 13.2177 2.43907C10.0872 2.39032 7.10369 3.69194 5.04156 6.05063C2.98025 8.4085 2.07838 11.5586 2.56669 14.6924C3.26625 19.1855 6.90137 22.7857 11.4067 23.4446C11.9429 23.5234 12.4776 23.5624 13.0073 23.5624C14.8647 23.5624 16.6628 23.0831 18.2804 22.1471C18.6688 21.9228 18.8013 21.4256 18.577 21.0372C18.3519 20.648 17.8555 20.5148 17.4663 20.7414C15.7072 21.7587 13.6923 22.1389 11.6423 21.8383C7.83494 21.2801 4.76369 18.2398 4.173 14.4421C3.75863 11.7844 4.52156 9.11538 6.266 7.12069C8.01125 5.12357 10.5487 4.00069 13.1853 4.06407C15.7877 4.11688 18.2301 5.34538 19.8884 7.43269C21.6442 9.64432 22.3169 12.4938 21.7344 15.2481L21.6832 15.4716C21.4565 16.3856 20.7025 16.6286 20.0752 16.553C19.4342 16.4742 18.6859 16.0265 18.6859 15.0206V8.93663C18.6859 8.48813 18.3219 8.12413 17.8734 8.12413C17.4249 8.12413 17.0609 8.48813 17.0609 8.93663V9.026C16.0274 7.96975 14.5892 7.31163 12.9984 7.31163C9.86213 7.31163 7.31088 9.86288 7.31088 12.9991C7.31088 16.1346 9.86213 18.6866 12.9984 18.6866C14.7964 18.6866 16.3987 17.8457 17.4419 16.54C17.9619 17.5004 18.9394 18.0513 19.8794 18.1658C21.4857 18.3641 22.8767 17.4151 23.2619 15.8632C23.2838 15.773 23.3049 15.6812 23.3261 15.5853C24.0061 12.354 23.218 9.01463 21.1599 6.42275ZM12.9967 17.0616C10.7567 17.0616 8.93425 15.2392 8.93425 12.9991C8.93425 10.7591 10.7567 8.93663 12.9967 8.93663C15.2368 8.93663 17.0592 10.7591 17.0592 12.9991C17.0592 15.2392 15.2368 17.0616 12.9967 17.0616Z" fill="#4354F0"/>
</svg>
