<svg width="22" height="22" viewBox="0 0 22 22" fill="none" xmlns="http://www.w3.org/2000/svg">
<path d="M18.7232 3.98501C16.7634 1.51663 13.8685 0.0646967 10.781 0.00132168C7.65042 -0.0474283 4.66692 1.2542 2.6048 3.61288C0.543483 5.97076 -0.358392 9.12082 0.12992 12.2546C0.829483 16.7478 4.46461 20.3479 8.96992 21.0069C9.50617 21.0857 10.0408 21.1247 10.5705 21.1247C12.4279 21.1247 14.226 20.6453 15.8437 19.7093C16.232 19.4851 16.3645 18.9878 16.1402 18.5994C15.9152 18.2103 15.4187 18.077 15.0295 18.3037C13.2705 19.3209 11.2555 19.7012 9.20555 19.4006C5.39817 18.8424 2.32692 15.802 1.73623 12.0044C1.32186 9.3467 2.0848 6.67763 3.82923 4.68295C5.57448 2.68582 8.11192 1.56295 10.7485 1.62632C13.3509 1.67913 15.7933 2.90763 17.4516 4.99495C19.2074 7.20657 19.8802 10.056 19.2976 12.8104L19.2464 13.0338C19.0197 13.9479 18.2657 14.1908 17.6385 14.1153C16.9974 14.0364 16.2491 13.5888 16.2491 12.5829V6.49888C16.2491 6.05038 15.8851 5.68638 15.4366 5.68638C14.9881 5.68638 14.6241 6.05038 14.6241 6.49888V6.58826C13.5906 5.53201 12.1525 4.87388 10.5616 4.87388C7.42536 4.87388 4.87411 7.42513 4.87411 10.5614C4.87411 13.6968 7.42536 16.2489 10.5616 16.2489C12.3597 16.2489 13.9619 15.4079 15.0052 14.1023C15.5252 15.0626 16.5026 15.6135 17.4427 15.7281C19.049 15.9263 20.44 14.9773 20.8251 13.4254C20.847 13.3353 20.8682 13.2434 20.8893 13.1476C21.5694 9.91626 20.7812 6.57688 18.7232 3.98501ZM10.56 14.6239C8.31992 14.6239 6.49748 12.8014 6.49748 10.5614C6.49748 8.32132 8.31992 6.49888 10.56 6.49888C12.8 6.49888 14.6225 8.32132 14.6225 10.5614C14.6225 12.8014 12.8 14.6239 10.56 14.6239Z" fill="#4354F0"/>
</svg>
