<svg width="19" height="19" viewBox="0 0 19 19" fill="none" xmlns="http://www.w3.org/2000/svg">
<g clip-path="url(#clip0_86_62)">
<path d="M17.9579 5.182C16.3826 2.10939 13.1839 0 9.5 0C5.81488 0 2.61581 2.11019 1.04088 5.18503C1.03463 5.19733 1.02716 5.20842 1.02232 5.22133C0.370085 6.50826 0 7.96137 0 9.5C0 11.039 0.370085 12.4921 1.02232 13.7787C1.02716 13.7916 1.03463 13.8027 1.04088 13.815C2.6154 16.8898 5.81488 19 9.5 19C13.1839 19 16.3826 16.891 17.9579 13.818C17.965 13.8043 17.9732 13.792 17.9785 13.7775C18.6303 12.4909 19 11.0382 19 9.5C19 7.96178 18.6303 6.50907 17.9785 5.22254C17.9728 5.20802 17.965 5.19572 17.9579 5.182ZM17.325 13.2174H13.6944C13.8961 12.1997 14.0159 11.0868 14.0384 9.91304H18.1529C18.0971 11.0915 17.8071 12.2072 17.325 13.2174ZM9.5 18.1739C8.19351 18.1739 7.02174 16.499 6.3572 14.0435H12.6428C11.9783 16.499 10.8065 18.1739 9.5 18.1739ZM6.15975 13.2174C5.94617 12.2017 5.8169 11.0848 5.79209 9.91304H13.2083C13.1831 11.0848 13.0538 12.2017 12.8407 13.2174H6.15975ZM0.847062 9.91304H4.96156C4.98456 11.0868 5.10395 12.1997 5.30563 13.2174H1.67496C1.19295 12.2072 0.902928 11.0915 0.847062 9.91304ZM1.67496 5.78261H5.30563C5.10395 6.80029 4.98415 7.91317 4.96156 9.08696H0.847062C0.902928 7.90853 1.19295 6.79283 1.67496 5.78261ZM9.5 0.826087C10.8065 0.826087 11.9783 2.50105 12.6428 4.95652H6.3572C7.02174 2.50105 8.19351 0.826087 9.5 0.826087ZM12.8402 5.78261C13.0538 6.79787 13.1831 7.91519 13.2079 9.08696H5.79169C5.8169 7.91519 5.94617 6.79787 6.15935 5.78261H12.8402ZM14.0384 9.08696C14.0154 7.91317 13.8961 6.80029 13.6944 5.78261H17.325C17.8071 6.79283 18.0971 7.90853 18.1529 9.08696H14.0384ZM16.8745 4.95652H13.5074C13.0893 3.31766 12.4484 1.98091 11.663 1.11026C13.8567 1.67658 15.7122 3.07685 16.8745 4.95652ZM7.33656 1.11026C6.55162 1.98091 5.91068 3.31766 5.49219 4.95652H2.12512C3.28781 3.07685 5.14328 1.67658 7.33656 1.11026ZM2.12552 14.0435H5.49219C5.91027 15.6823 6.55122 17.0191 7.33656 17.8897C5.14328 17.3234 3.28781 15.9227 2.12552 14.0435ZM11.6634 17.8897C12.4484 17.0191 13.0893 15.6823 13.5078 14.0435H16.8745C15.7122 15.9227 13.8567 17.3234 11.6634 17.8897Z" fill="#4354F0"/>
</g>
<defs>
<clipPath id="clip0_86_62">
<rect width="19" height="19" fill="white"/>
</clipPath>
</defs>
</svg>
