<svg width="21" height="21" viewBox="0 0 21 21" fill="none" xmlns="http://www.w3.org/2000/svg">
<g clip-path="url(#clip0_86_66)">
<path d="M20.6757 2.08603C20.4192 1.77232 20.035 1.59961 19.5938 1.59961C19.354 1.59961 19.0999 1.65008 18.8387 1.74989L1.06259 8.53557C0.119235 8.89558 -0.00781768 9.43583 0.000353394 9.72583C0.00852446 10.0158 0.166018 10.5481 1.12828 10.8542C1.13405 10.856 1.13982 10.8578 1.14559 10.8594L4.83283 11.9146L6.82689 17.6167C7.09878 18.3941 7.70905 18.877 8.41977 18.877C8.8679 18.877 9.30866 18.6892 9.69446 18.3341L11.9752 16.2342L15.2832 18.8978C15.2835 18.8981 15.284 18.8983 15.2843 18.8986L15.3157 18.9239C15.3186 18.9261 15.3216 18.9285 15.3245 18.9308C15.6922 19.216 16.0935 19.3666 16.4856 19.3667H16.4857C17.2517 19.3667 17.8617 18.7997 18.0394 17.9224L20.952 3.54064C21.0689 2.96338 20.9709 2.44684 20.6757 2.08603ZM6.06634 11.7141L13.1801 8.07992L8.75062 12.7866C8.67804 12.8637 8.62661 12.958 8.6013 13.0607L7.74718 16.5205L6.06634 11.7141ZM8.86085 17.4289C8.83137 17.456 8.80173 17.4802 8.77209 17.5025L9.56452 14.293L11.006 15.4538L8.86085 17.4289ZM19.746 3.29631L16.8334 17.6782C16.8054 17.8158 16.7158 18.1361 16.4856 18.1361C16.3718 18.1361 16.2289 18.0741 16.0826 17.9615L12.3342 14.9433C12.3337 14.9428 12.3331 14.9423 12.3324 14.942L10.1021 13.146L16.5077 6.33948C16.7128 6.12158 16.7314 5.78785 16.5518 5.54848C16.372 5.30912 16.0463 5.23382 15.7798 5.37L5.24426 10.7523L1.50688 9.68305L19.2775 2.89945C19.4277 2.84209 19.5324 2.83008 19.5938 2.83008C19.6315 2.83008 19.6984 2.83456 19.7233 2.86517C19.7559 2.90506 19.7976 3.04108 19.746 3.29631Z" fill="#4354F0"/>
</g>
<defs>
<clipPath id="clip0_86_66">
<rect width="21" height="21" fill="white"/>
</clipPath>
</defs>
</svg>
